<?xml version="1.0" standalone="no"?>
<!DOCTYPE svg PUBLIC "-//W3C//DTD SVG 20010904//EN"
 "http://www.w3.org/TR/2001/REC-SVG-20010904/DTD/svg10.dtd">
<svg version="1.0" xmlns="http://www.w3.org/2000/svg"
 width="100.000000pt" height="100.000000pt" viewBox="0 0 100.000000 100.000000"
 preserveAspectRatio="xMidYMid meet">

<g transform="translate(0.000000,100.000000) scale(0.100000,-0.100000)"
fill="#000000" stroke="none">
<path d="M479 891 c-245 -48 -454 -91 -464 -95 -13 -5 -16 -12 -10 -34 4 -15
11 -187 14 -382 l6 -355 205 0 c176 0 205 2 205 15 0 13 -29 15 -187 18 l-188
2 0 235 0 235 450 0 450 0 0 -235 0 -235 -190 0 c-184 0 -190 -1 -190 -20 0
-20 5 -20 208 -18 l207 3 0 330 0 330 -360 3 -360 4 350 69 c193 37 352 69
354 69 6 0 -9 98 -19 125 -5 14 -15 25 -22 24 -7 -1 -214 -40 -459 -88z m455
7 c3 -17 5 -33 3 -34 -1 -2 -21 -6 -42 -9 -35 -5 -45 -2 -75 23 l-35 30 45 10
c83 18 97 16 104 -20z m-156 -37 c12 -11 22 -21 22 -24 0 -3 -22 -8 -50 -12
-44 -6 -53 -4 -85 21 -19 15 -34 29 -32 31 2 2 24 7 48 12 46 8 59 4 97 -28z
m-168 -20 c19 -16 33 -32 30 -34 -3 -3 -25 -8 -50 -12 -40 -6 -49 -3 -83 23
l-37 30 47 10 c27 5 50 10 53 11 3 0 21 -13 40 -28z m-159 -28 c21 -16 39 -31
39 -35 0 -3 -23 -9 -50 -13 -45 -6 -54 -4 -86 20 -19 15 -34 29 -32 31 2 2 22
8 44 13 21 5 41 9 42 10 2 1 21 -11 43 -26z m-148 -37 c15 -11 27 -23 27 -27
0 -4 -22 -10 -49 -14 -45 -6 -53 -4 -86 22 l-35 28 47 11 c51 12 53 11 96 -20z
m-158 -32 l40 -35 -40 6 c-22 3 -52 7 -67 8 -16 1 -28 8 -28 15 0 6 0 15 -1
20 0 6 26 17 51 21 3 0 23 -15 45 -35z m-47 -77 c2 -10 -3 -17 -12 -17 -18 0
-29 16 -21 31 9 14 29 6 33 -14z m86 -29 c-33 -56 -49 -68 -86 -68 -31 0 -38
3 -38 20 0 14 7 20 23 20 13 0 32 9 42 20 20 22 71 29 59 8z m157 -5 c-33 -56
-45 -64 -99 -61 l-52 3 26 38 c26 35 30 37 81 37 48 0 53 -2 44 -17z m160 0
c-33 -56 -45 -64 -99 -61 l-52 3 26 38 c26 35 30 37 81 37 48 0 53 -2 44 -17z
m158 0 c-43 -57 -52 -63 -101 -63 -26 0 -48 3 -48 6 0 3 12 21 26 40 24 31 30
34 81 34 51 0 54 -1 42 -17z m160 0 c-43 -57 -52 -63 -101 -63 -26 0 -48 3
-48 6 0 3 12 21 26 40 24 31 30 34 81 34 51 0 54 -1 42 -17z m141 -23 l0 -40
-65 0 c-36 0 -65 3 -65 7 0 3 11 21 26 40 21 28 31 33 65 33 39 0 39 0 39 -40z"/>
<path d="M110 386 c0 -40 4 -55 16 -60 20 -8 738 -8 758 0 12 5 16 20 16 60
l0 54 -395 0 -395 0 0 -54z m225 -1 c0 -18 -8 -20 -92 -23 l-93 -3 0 26 0 26
93 -3 c84 -3 92 -5 92 -23z m265 0 l0 -25 -110 0 -110 0 0 25 0 25 110 0 110
0 0 -25z m260 0 l0 -25 -104 0 c-105 0 -124 6 -112 35 4 12 28 15 111 15 l105
0 0 -25z"/>
<path d="M120 185 c0 -54 0 -55 30 -55 29 0 30 1 30 49 0 35 -4 51 -16 55 -38
14 -44 7 -44 -49z m27 -22 c-3 -10 -5 -2 -5 17 0 19 2 27 5 18 2 -10 2 -26 0
-35z"/>
<path d="M202 228 c-7 -7 -12 -29 -12 -49 0 -73 62 -78 68 -5 5 54 -26 84 -56
54z m25 -70 c-2 -13 -4 -3 -4 22 0 25 2 35 4 23 2 -13 2 -33 0 -45z"/>
<path d="M283 233 c-8 -3 -13 -24 -13 -53 0 -40 4 -50 20 -55 23 -7 50 10 50
31 0 20 -28 17 -33 -3 -3 -10 -5 2 -5 27 0 25 2 37 5 28 5 -21 33 -24 33 -5 0
27 -28 42 -57 30z"/>
<path d="M350 184 c0 -53 13 -70 45 -58 11 4 15 21 15 58 0 52 0 53 -30 53
-30 0 -30 -1 -30 -53z"/>
<path d="M427 233 c-4 -3 -7 -28 -7 -55 0 -35 4 -48 14 -48 8 0 17 8 19 18 4
16 5 16 6 0 1 -23 18 -23 24 0 4 16 5 16 6 0 0 -10 6 -18 11 -18 6 0 10 25 10
55 0 41 -4 55 -15 55 -7 0 -19 -8 -24 -17 -10 -17 -10 -17 -11 0 0 17 -20 23
-33 10z"/>
<path d="M530 185 l0 -55 39 0 c22 0 42 5 44 13 4 10 6 10 6 0 1 -7 8 -13 16
-13 12 0 15 13 15 55 0 56 -11 69 -29 38 -10 -17 -10 -17 -11 0 0 38 -25 9
-30 -36 -4 -38 -8 -45 -20 -37 -13 9 -13 11 -1 19 12 8 12 12 2 25 -9 11 -10
16 -2 16 6 0 11 7 11 15 0 8 -9 15 -20 15 -18 0 -20 -7 -20 -55z"/>
<path d="M664 218 c3 -13 6 -38 6 -55 0 -23 5 -33 15 -33 11 0 15 11 15 39 0
22 5 43 10 46 20 12 9 25 -21 25 -28 0 -31 -3 -25 -22z"/>
<path d="M726 218 c-18 -87 -18 -86 19 -85 38 1 39 5 29 70 -8 43 -40 53 -48
15z"/>
<path d="M790 185 c0 -41 4 -55 14 -55 8 0 17 10 19 23 l4 22 2 -22 c0 -13 8
-23 16 -23 12 0 14 10 11 45 -6 56 -11 65 -42 65 -23 0 -24 -3 -24 -55z"/>
<path d="M864 218 c4 -13 9 -38 13 -55 7 -38 33 -45 33 -9 0 13 3 38 6 55 4
20 3 31 -5 31 -6 0 -11 -8 -11 -17 -1 -17 -1 -17 -11 0 -15 25 -33 21 -25 -5z"/>
<path d="M492 43 c4 -21 33 -25 33 -3 0 8 -8 16 -18 18 -14 3 -18 -1 -15 -15z"/>
</g>
</svg>
