<?xml version="1.0" standalone="no"?>
<!DOCTYPE svg PUBLIC "-//W3C//DTD SVG 20010904//EN"
 "http://www.w3.org/TR/2001/REC-SVG-20010904/DTD/svg10.dtd">
<svg version="1.0" xmlns="http://www.w3.org/2000/svg"
 width="100.000000pt" height="100.000000pt" viewBox="0 0 100.000000 100.000000"
 preserveAspectRatio="xMidYMid meet">

<g transform="translate(0.000000,100.000000) scale(0.100000,-0.100000)"
fill="#000000" stroke="none">
<path d="M363 925 c-3 -10 10 -35 36 -65 22 -27 41 -51 41 -54 0 -3 -83 -6
-185 -6 -171 0 -187 -2 -205 -20 -11 -11 -22 -30 -25 -42 -3 -13 -5 -133 -3
-267 4 -303 -11 -281 190 -281 l141 0 -6 -37 c-10 -60 -2 -63 153 -63 155 0
163 3 153 63 l-6 37 141 0 c201 0 186 -22 190 281 2 134 0 254 -3 267 -3 12
-14 31 -25 42 -18 18 -34 20 -205 20 -102 0 -185 3 -185 6 0 3 18 27 40 52 23
25 39 53 38 61 -7 33 -35 19 -81 -39 -27 -33 -53 -60 -57 -60 -4 0 -30 27 -57
60 -49 61 -69 72 -80 45z m562 -430 l0 -250 -425 0 -425 0 -3 240 c-1 132 0
245 3 252 3 11 91 13 427 11 l423 -3 0 -250z"/>
<path d="M400 500 c0 -103 3 -131 13 -128 28 7 207 114 207 123 0 6 -30 28
-67 49 -38 21 -87 50 -110 63 l-43 25 0 -132z"/>
</g>
</svg>
